<svg height="800" viewBox="0 0 504.123 504.123" width="800" xmlns="http://www.w3.org/2000/svg">
  <circle cx="252.062" cy="252.062" fill="#324a5e" r="252.062" />
  <path d="m148.48 252.062h-53.957c0 87.04 70.498 157.538 157.538 157.538v-53.957c-57.107-0-103.581-46.474-103.581-103.581z" fill="#f9b54c" />
  <path d="m252.062 355.643v53.957c87.04 0 157.538-70.498 157.538-157.538h-53.957c-0 57.107-46.474 103.581-103.581 103.581z" fill="#54c0eb" />
  <path d="m252.062 148.48v-53.957c-87.04 0-157.538 70.498-157.538 157.538h53.957c-.001-57.107 46.473-103.581 103.581-103.581z" fill="#f1543f" />
  <path d="m301.292 102.4-46.08 46.08c14.572.394 28.357 3.938 40.566 9.452l39.778-39.778c-10.633-6.302-22.054-11.816-34.264-15.754z" fill="#acb3ba" />
  <path d="m252.062 94.523v53.957h3.151l46.08-46.08c-15.361-5.12-31.902-7.877-49.231-7.877z" fill="#e6e9ee" />
  <path d="m335.557 118.548-39.778 39.778c11.028 5.12 20.874 12.209 29.538 20.48l38.203-38.203c-8.665-8.271-17.723-15.754-27.963-22.055z" fill="#e6e9ee" />
  <path d="m363.52 140.603-38.203 38.203c8.665 8.665 15.36 18.511 20.48 29.538l39.778-39.778c-6.301-10.24-13.784-19.298-22.055-27.963z" fill="#acb3ba" />
  <path d="m355.643 248.911v3.151h53.957c0-17.329-2.757-33.871-7.877-49.231z" fill="#acb3ba" />
  <path d="m385.575 168.566-39.778 39.778c5.908 12.603 9.058 25.994 9.452 40.566l46.474-46.08c-3.938-12.208-9.452-23.63-16.148-34.264z" fill="#e6e9ee" />
  <path d="m248.123 328.862v-13.391c-16.935-1.575-31.902-8.271-45.686-20.086l13.391-16.148c10.24 9.058 20.874 14.572 31.902 16.148v-35.84c-13.785-3.151-24.025-7.877-30.72-12.997s-9.846-13.391-9.846-24.025 3.545-19.298 11.028-26.388c7.483-6.695 17.329-10.634 29.145-11.028v-9.452h11.815v9.452c13.391 1.182 26.388 5.514 38.597 13.785l-12.209 16.935c-8.271-5.908-16.935-9.452-26.388-10.634v34.658h.394c14.178 3.151 24.812 7.877 31.114 13.391 6.695 5.514 9.846 13.785 9.846 24.812 0 10.634-3.938 19.692-11.422 26.388-7.483 6.695-17.723 10.634-30.326 11.028v13.391zm-12.997-119.73c-3.151 2.757-4.726 6.302-4.726 10.24s1.182 7.483 3.545 9.846 7.089 4.726 14.178 7.089v-31.902c-5.514.395-9.846 1.97-12.997 4.727zm38.597 81.526c3.545-2.757 5.12-6.302 5.12-10.634s-1.182-7.877-3.938-10.24c-2.757-2.363-7.877-4.726-15.36-7.089v33.477c6.301-1.181 11.027-2.757 14.178-5.514z" fill="#fff" />
</svg>
